<svg width="97" height="100" viewBox="0 0 97 100" fill="none" xmlns="http://www.w3.org/2000/svg">
<rect y="5" width="92" height="94.7142" rx="10.464" fill="#00BEC4"/>
<path d="M19.0803 80V33.0533H50.1642V41.2369H29.006V52.4234H48.1011V60.607H29.006V80H19.0803Z" fill="white"/>
<path d="M42.2641 41.2369V33.0533H80.821V41.2369H66.4481V80H56.637V41.2369H42.2641Z" fill="white"/>
<rect x="6" y="1" width="90" height="92.7142" rx="9.464" fill="#00BEC4" stroke="white" stroke-width="2"/>
<mask id="path-5-outside-1_9_83" maskUnits="userSpaceOnUse" x="22" y="26" width="36" height="51" fill="black">
<rect fill="white" x="22" y="26" width="36" height="51"/>
<path d="M24.0803 75V28.0533H55.1642V36.2369H34.006V47.4234H53.1011V55.607H34.006V75H24.0803Z"/>
</mask>
<path d="M24.0803 75V28.0533H55.1642V36.2369H34.006V47.4234H53.1011V55.607H34.006V75H24.0803Z" fill="white"/>
<path d="M24.0803 75H22.0803V77H24.0803V75ZM24.0803 28.0533V26.0533H22.0803V28.0533H24.0803ZM55.1642 28.0533H57.1642V26.0533H55.1642V28.0533ZM55.1642 36.2369V38.2369H57.1642V36.2369H55.1642ZM34.006 36.2369V34.2369H32.006V36.2369H34.006ZM34.006 47.4234H32.006V49.4234H34.006V47.4234ZM53.1011 47.4234H55.1011V45.4234H53.1011V47.4234ZM53.1011 55.607V57.607H55.1011V55.607H53.1011ZM34.006 55.607V53.607H32.006V55.607H34.006ZM34.006 75V77H36.006V75H34.006ZM24.0803 75H26.0803V28.0533H24.0803H22.0803V75H24.0803ZM24.0803 28.0533V30.0533H55.1642V28.0533V26.0533H24.0803V28.0533ZM55.1642 28.0533H53.1642V36.2369H55.1642H57.1642V28.0533H55.1642ZM55.1642 36.2369V34.2369H34.006V36.2369V38.2369H55.1642V36.2369ZM34.006 36.2369H32.006V47.4234H34.006H36.006V36.2369H34.006ZM34.006 47.4234V49.4234H53.1011V47.4234V45.4234H34.006V47.4234ZM53.1011 47.4234H51.1011V55.607H53.1011H55.1011V47.4234H53.1011ZM53.1011 55.607V53.607H34.006V55.607V57.607H53.1011V55.607ZM34.006 55.607H32.006V75H34.006H36.006V55.607H34.006ZM34.006 75V73H24.0803V75V77H34.006V75Z" fill="white" mask="url(#path-5-outside-1_9_83)"/>
<mask id="path-7-outside-2_9_83" maskUnits="userSpaceOnUse" x="44.9718" y="26" width="43" height="51" fill="black">
<rect fill="white" x="44.9718" y="26" width="43" height="51"/>
<path d="M47.2641 36.2369V28.0533H85.821V36.2369H71.4481V75H61.637V36.2369H47.2641Z"/>
</mask>
<path d="M47.2641 36.2369V28.0533H85.821V36.2369H71.4481V75H61.637V36.2369H47.2641Z" fill="white"/>
<path d="M47.2641 36.2369H45.2641V38.2369H47.2641V36.2369ZM47.2641 28.0533V26.0533H45.2641V28.0533H47.2641ZM85.821 28.0533H87.821V26.0533H85.821V28.0533ZM85.821 36.2369V38.2369H87.821V36.2369H85.821ZM71.4481 36.2369V34.2369H69.4481V36.2369H71.4481ZM71.4481 75V77H73.4481V75H71.4481ZM61.637 75H59.637V77H61.637V75ZM61.637 36.2369H63.637V34.2369H61.637V36.2369ZM47.2641 36.2369H49.2641V28.0533H47.2641H45.2641V36.2369H47.2641ZM47.2641 28.0533V30.0533H85.821V28.0533V26.0533H47.2641V28.0533ZM85.821 28.0533H83.821V36.2369H85.821H87.821V28.0533H85.821ZM85.821 36.2369V34.2369H71.4481V36.2369V38.2369H85.821V36.2369ZM71.4481 36.2369H69.4481V75H71.4481H73.4481V36.2369H71.4481ZM71.4481 75V73H61.637V75V77H71.4481V75ZM61.637 75H63.637V36.2369H61.637H59.637V75H61.637ZM61.637 36.2369V34.2369H47.2641V36.2369V38.2369H61.637V36.2369Z" fill="white" mask="url(#path-7-outside-2_9_83)"/>
</svg>
